<?xml version="1.0" standalone="no"?>
<!DOCTYPE svg PUBLIC "-//W3C//DTD SVG 20010904//EN"
 "http://www.w3.org/TR/2001/REC-SVG-20010904/DTD/svg10.dtd">
<svg version="1.0" xmlns="http://www.w3.org/2000/svg"
 width="377.000000pt" height="377.000000pt" viewBox="0 0 377.000000 377.000000"
 preserveAspectRatio="xMidYMid meet">
<metadata>
Created by potrace 1.14, written by Peter Selinger 2001-2017
</metadata>
<g transform="translate(0.000000,377.000000) scale(0.100000,-0.100000)"
fill="#000000" stroke="none">
<path d="M604 3625 c-72 -49 -51 -199 47 -341 30 -43 32 -52 34 -143 2 -108
14 -163 47 -211 51 -74 118 -95 209 -65 l53 18 23 -29 c72 -87 75 -154 8 -154
-31 0 -39 14 -23 39 15 24 -1 47 -26 38 -20 -8 -20 -36 0 -65 30 -43 114 -21
114 29 0 22 -34 92 -61 128 -25 31 -20 36 104 110 221 129 462 217 737 267
135 25 451 25 575 0 130 -26 241 -63 272 -91 26 -24 27 -26 10 -39 -16 -12
-21 -10 -46 14 -57 57 -270 100 -498 100 -292 -1 -612 -74 -868 -200 -110 -54
-170 -105 -180 -151 -12 -54 44 -89 89 -56 22 16 18 60 -5 65 -24 4 -33 -28
-12 -43 15 -11 15 -13 -6 -20 -27 -8 -51 10 -51 39 0 98 406 270 760 323 149
22 423 22 533 -1 92 -18 187 -59 187 -80 0 -18 -46 -24 -245 -31 -375 -13
-485 -25 -670 -72 -231 -57 -434 -161 -556 -282 -87 -88 -123 -175 -88 -217 8
-9 14 -36 14 -59 0 -24 7 -50 14 -59 8 -9 15 -32 16 -50 1 -19 10 -47 19 -61
10 -15 24 -52 32 -83 20 -76 55 -127 107 -154 68 -35 175 -30 477 25 140 25
284 49 320 52 156 14 174 17 158 26 -33 18 -272 -10 -638 -76 -124 -23 -252
-22 -292 2 -18 11 -34 27 -36 36 -3 15 0 15 44 0 64 -22 196 -13 389 27 83 17
211 37 285 46 254 28 267 30 245 39 -27 12 -275 -10 -440 -40 -256 -46 -339
-57 -404 -52 -66 5 -113 29 -119 60 -3 15 0 15 32 2 59 -25 186 -19 383 19 98
19 197 37 221 41 42 7 59 25 22 25 -10 0 -106 -16 -212 -36 -227 -43 -357 -50
-400 -21 -32 22 -48 54 -21 41 46 -21 178 -15 328 15 83 16 213 39 290 51 132
20 154 25 144 34 -7 7 -215 -23 -384 -54 -88 -16 -185 -32 -215 -36 -66 -7
-136 9 -150 36 -15 28 -12 32 12 19 32 -17 169 -5 333 29 272 58 346 66 565
66 155 0 227 -4 294 -18 75 -14 206 -54 269 -81 9 -4 17 -3 17 2 0 12 -103 56
-180 77 -241 67 -561 62 -945 -15 -82 -16 -192 -33 -242 -36 -81 -5 -93 -4
-99 11 -18 48 116 166 281 245 240 117 484 161 894 161 229 0 338 25 378 86 9
14 21 49 26 77 9 51 12 69 22 172 3 28 8 71 11 98 8 66 0 91 -46 141 -70 76
-227 136 -458 176 -124 22 -228 27 -202 10 8 -5 31 -10 50 -10 122 -1 366 -58
479 -113 67 -32 151 -103 151 -127 0 -9 -10 -4 -27 12 -72 67 -295 137 -551
172 -128 18 -176 20 -168 7 3 -5 43 -12 88 -16 46 -4 137 -18 202 -32 272 -56
436 -134 436 -205 0 -15 -8 -12 -44 16 -52 40 -147 77 -266 106 -91 21 -120
24 -120 13 0 -5 45 -18 99 -30 120 -26 213 -66 246 -105 49 -58 25 -83 -36
-38 -101 73 -342 120 -613 120 -244 0 -451 -40 -707 -135 -113 -42 -289 -127
-378 -181 l-44 -27 29 52 c16 28 46 70 68 92 43 46 164 109 268 140 37 11 70
24 73 29 9 15 -3 13 -103 -20 -123 -40 -217 -88 -279 -145 l-52 -46 -16 31
c-10 19 -31 38 -53 47 l-37 15 50 26 c28 14 45 27 38 29 -16 6 -134 -50 -161
-77 -22 -20 -25 -21 -40 -7 -14 15 -13 20 13 57 38 54 103 101 222 157 105 51
109 69 5 29 -94 -37 -182 -89 -237 -141 l-50 -46 -20 28 c-18 25 -20 43 -20
209 0 179 0 183 -24 208 -28 29 -66 34 -97 11z m81 -25 c9 -10 20 -39 22 -64
7 -56 -6 -256 -16 -256 -12 0 -62 109 -77 165 -18 64 -17 98 0 140 17 40 43
46 71 15z m59 -482 c-8 -15 -17 -28 -19 -28 -3 0 -5 24 -5 53 l0 52 19 -25
c17 -22 18 -27 5 -52z m2140 1 c-40 -42 -86 -64 -174 -82 -113 -24 -144 -26
-420 -37 -262 -10 -420 -26 -420 -43 0 -5 16 -7 38 -4 91 14 263 26 452 32
113 3 237 10 277 15 90 12 188 44 231 77 18 14 36 23 39 20 10 -11 -23 -62
-56 -84 -77 -52 -174 -66 -556 -83 -248 -10 -372 -23 -389 -40 -13 -13 10 -13
94 0 36 6 187 15 335 20 151 5 308 16 356 25 88 15 171 44 183 64 13 20 24 12
18 -12 -29 -97 -141 -126 -492 -127 -225 -1 -457 -21 -446 -39 2 -3 80 -1 173
6 92 6 245 12 338 12 207 2 300 13 365 44 58 28 67 15 22 -30 -56 -55 -114
-65 -457 -74 -363 -9 -441 -20 -635 -86 -331 -113 -530 -290 -548 -486 -4 -51
-7 -57 -14 -36 -33 87 13 219 111 318 85 86 257 191 404 246 29 11 44 22 39
27 -17 17 -229 -83 -345 -162 -115 -77 -219 -201 -233 -277 -8 -44 -28 -37
-32 11 -8 88 94 222 243 321 85 56 245 138 307 157 21 6 35 15 32 19 -13 21
-271 -98 -379 -176 -83 -59 -162 -140 -198 -204 -25 -44 -32 -50 -39 -36 -16
28 1 81 46 142 82 112 220 213 391 288 82 35 118 66 48 41 -185 -66 -380 -203
-465 -324 -40 -58 -59 -44 -33 25 40 105 216 241 421 325 218 90 423 122 864
138 166 5 310 15 345 23 73 16 145 48 164 71 8 9 16 14 19 11 3 -3 -8 -19 -24
-36z m-1921 -10 c47 -21 63 -107 29 -149 l-18 -22 -68 73 -68 73 22 18 c25 20
68 23 103 7z m-151 -64 c-5 -38 19 -85 43 -85 18 0 28 17 21 37 -5 13 -9 13
-22 2 -13 -10 -17 -10 -25 2 -11 17 -12 46 -1 53 4 2 36 -27 71 -65 l63 -69
-36 -15 c-46 -19 -71 -19 -106 1 -51 31 -72 105 -49 173 10 29 13 31 28 17 12
-11 16 -26 13 -51z"/>
<path d="M1795 2953 c-16 -2 -55 -11 -85 -20 -52 -16 -53 -17 -25 -22 31 -6
52 -38 72 -106 7 -25 14 -30 38 -30 23 0 30 4 30 20 0 14 -8 21 -27 23 -16 2
-28 9 -28 15 0 7 -3 22 -6 35 -5 19 -2 22 21 22 22 0 30 -7 43 -40 19 -46 54
-62 79 -37 21 21 6 40 -28 35 -23 -4 -30 0 -40 23 -6 16 -17 34 -25 40 -20 16
-17 29 6 29 11 0 20 5 20 10 0 6 -3 9 -7 9 -5 -1 -21 -4 -38 -6z m-11 -32 c7
-10 -33 -20 -53 -13 -11 4 -11 6 0 13 18 11 46 11 53 0z"/>
<path d="M1395 3359 c-27 -11 -56 -22 -64 -25 -8 -2 -12 -7 -9 -9 5 -5 147 41
156 50 11 11 -36 2 -83 -16z"/>
<path d="M1657 3321 c-89 -23 -112 -45 -26 -25 98 23 139 34 139 39 0 9 -45 3
-113 -14z"/>
<path d="M2619 2687 c7 -10 20 -17 27 -17 10 0 7 -15 -13 -54 -25 -52 -28 -54
-47 -40 -27 18 -51 18 -70 -2 -24 -23 -19 -40 12 -53 48 -20 77 -5 109 55 15
30 32 54 36 54 4 0 24 -7 44 -15 33 -14 35 -18 29 -47 -8 -41 -13 -45 -36 -30
-39 24 -80 8 -80 -30 0 -22 43 -34 79 -22 17 6 34 27 50 61 27 56 45 70 68 52
26 -22 23 -2 -4 26 -35 35 -98 62 -166 71 -48 7 -51 6 -38 -9z m125 -32 c20
-8 36 -22 36 -31 0 -9 -3 -14 -7 -12 -5 2 -27 12 -50 22 -24 10 -40 22 -37 27
7 12 16 11 58 -6z m-177 -111 c-3 -3 -12 -4 -19 -1 -8 3 -5 6 6 6 11 1 17 -2
13 -5z m108 -34 c3 -5 -1 -10 -10 -10 -9 0 -13 5 -10 10 3 6 8 10 10 10 2 0 7
-4 10 -10z"/>
<path d="M810 2428 c0 -5 25 -33 55 -62 30 -28 55 -57 55 -63 0 -6 -13 -13
-29 -16 -49 -10 -53 -77 -6 -77 74 0 72 113 -2 169 -16 11 -22 21 -14 21 8 0
29 -11 48 -26 35 -26 46 -19 14 10 -24 22 -121 57 -121 44z m100 -188 c0 -5
-7 -10 -15 -10 -8 0 -15 5 -15 10 0 6 7 10 15 10 8 0 15 -4 15 -10z"/>
<path d="M2109 2364 c-9 -11 -24 -33 -33 -51 -14 -28 -19 -31 -49 -26 -24 3
-37 0 -47 -12 -12 -15 -12 -19 5 -31 33 -24 73 -4 100 52 18 38 35 37 35 -4 0
-18 3 -23 10 -16 7 7 8 28 3 59 -8 45 -9 46 -24 29z"/>
<path d="M2165 2361 c-14 -7 1 -10 55 -10 41 -1 136 -10 210 -21 148 -22 177
-24 141 -9 -68 27 -369 57 -406 40z"/>
<path d="M2155 2280 c8 -13 55 -13 75 0 11 7 2 10 -33 10 -30 0 -46 -4 -42
-10z"/>
<path d="M2050 1974 c-179 -46 -312 -96 -398 -151 -58 -37 -78 -43 -40 -13 38
29 59 78 45 107 -13 30 -53 41 -74 20 -9 -8 -13 -23 -10 -31 9 -23 37 -20 37
4 0 11 4 20 10 20 9 0 30 -31 30 -45 0 -3 -27 -34 -60 -70 -80 -85 -82 -98
-46 -228 9 -32 16 -69 16 -83 0 -13 4 -32 9 -42 6 -9 12 -30 16 -45 8 -37 46
-52 94 -36 20 7 104 41 186 77 83 36 190 82 240 102 49 21 91 43 93 49 5 14
-154 -45 -362 -135 -104 -45 -131 -51 -74 -16 86 53 239 121 462 205 59 22 7
17 -65 -7 -109 -36 -213 -78 -355 -146 -70 -33 -132 -60 -137 -60 -6 0 5 16
24 36 46 48 204 123 384 183 80 26 149 51 153 55 26 26 -335 -96 -446 -150
-51 -26 -109 -61 -127 -79 -40 -38 -52 -34 -27 8 20 35 109 97 195 137 38 18
54 29 41 29 -31 1 -181 -76 -225 -117 -41 -36 -49 -30 -25 17 23 44 84 91 163
128 77 35 92 47 44 33 -58 -16 -157 -70 -195 -105 -21 -19 -41 -33 -43 -31
-14 14 14 70 52 104 72 68 297 162 478 202 31 7 57 17 57 22 0 11 -4 11 -95
-12 -201 -51 -406 -137 -474 -200 -39 -37 -49 -34 -26 9 41 81 237 176 485
236 114 28 157 46 110 44 -14 0 -68 -11 -120 -25z"/>
<path d="M2058 1812 c-82 -26 -119 -43 -87 -41 25 1 215 67 194 67 -11 0 -59
-11 -107 -26z"/>
<path d="M1920 1803 c-14 -2 -43 -9 -65 -15 -37 -10 -38 -12 -15 -17 26 -7 45
-37 54 -82 7 -32 34 -45 54 -25 18 18 6 39 -19 31 -10 -4 -19 -3 -19 2 0 4 -3
18 -6 31 -10 38 30 28 55 -13 11 -19 25 -35 30 -35 20 0 41 13 41 26 0 7 19
18 43 24 75 20 112 32 122 42 6 6 -1 7 -20 3 -53 -12 -130 -37 -139 -46 -22
-21 -61 -9 -79 23 -12 21 -15 34 -8 36 12 4 15 23 4 21 -5 -1 -19 -4 -33 -6z
m-13 -34 c-14 -8 -22 -8 -30 0 -8 8 -3 11 19 11 25 -1 27 -2 11 -11z"/>
<path d="M1984 1430 c-140 -73 -194 -109 -285 -188 l-38 -33 12 30 c9 26 9 34
-5 47 -9 9 -24 14 -32 11 -21 -8 -21 -47 0 -47 11 0 14 6 9 21 -5 15 -4 19 4
15 21 -13 11 -48 -34 -122 -76 -126 -94 -225 -50 -274 19 -21 105 -43 130 -33
9 3 26 1 38 -4 44 -20 110 -31 139 -23 16 5 66 38 111 74 101 81 152 106 216
106 80 0 131 -56 131 -145 0 -61 -32 -121 -122 -230 -16 -18 -28 -38 -28 -44
0 -6 -6 -14 -14 -17 -8 -3 -20 -20 -27 -37 -7 -18 -20 -41 -30 -52 -59 -69 -1
-241 115 -341 77 -66 81 -57 10 18 -102 107 -149 223 -114 278 10 16 8 20 30
-60 14 -55 54 -124 91 -161 42 -41 94 -79 109 -79 7 0 -5 13 -26 28 -108 79
-193 246 -170 337 10 38 23 30 24 -14 5 -117 97 -239 227 -300 86 -41 98 -33
15 9 -80 41 -153 109 -185 174 -40 82 -56 206 -26 206 5 0 11 -23 14 -52 9
-71 49 -148 103 -198 52 -48 154 -99 210 -106 32 -3 28 0 -27 20 -115 41 -193
105 -239 195 -26 52 -36 147 -21 194 20 58 32 55 25 -6 -12 -105 45 -218 142
-277 46 -29 167 -60 229 -59 46 1 43 2 -34 15 -113 19 -192 56 -245 115 -47
52 -66 103 -66 175 0 66 33 131 112 226 86 102 103 137 103 219 0 55 -5 72
-28 107 -42 64 -93 86 -201 87 l-88 0 56 25 c53 24 71 40 44 40 -22 0 -135
-57 -197 -99 -180 -122 -292 -270 -252 -332 14 -24 14 -29 -3 -29 -24 0 -46
30 -46 61 0 103 204 302 406 395 86 40 94 53 15 24 -115 -42 -274 -156 -363
-261 -58 -68 -80 -113 -82 -161 -1 -41 -14 -48 -41 -21 -13 13 -16 29 -13 68
5 56 28 96 97 170 24 25 41 50 39 57 -6 16 -114 -108 -139 -158 -14 -30 -20
-59 -18 -91 3 -46 2 -48 -22 -45 -33 3 -49 28 -49 77 0 58 42 135 114 213 64
68 50 72 -18 5 -95 -95 -136 -194 -112 -271 7 -22 6 -23 -14 -12 -53 29 -50
111 8 210 65 109 201 218 410 328 56 29 102 55 102 58 0 11 -30 -1 -136 -56z
m373 -221 c91 -23 160 -127 135 -203 l-10 -31 -1 38 c-3 125 -127 207 -269
178 -70 -14 -79 -7 -16 13 60 18 102 19 161 5z m17 -62 c65 -37 81 -67 81
-150 -1 -49 -6 -81 -18 -102 l-17 -30 7 30 c18 75 0 158 -43 196 -45 40 -85
51 -163 47 -61 -3 -89 -10 -139 -35 -39 -20 -59 -26 -50 -16 7 9 44 31 83 50
60 28 80 33 145 33 59 0 83 -5 114 -23z m-44 -45 c19 -9 45 -33 58 -52 21 -31
23 -44 20 -112 -4 -100 -23 -123 -23 -28 0 77 -15 107 -76 148 -29 21 -44 23
-104 20 -78 -4 -134 -26 -210 -85 -36 -27 -44 -30 -36 -14 15 28 105 95 161
120 59 26 162 28 210 3z m-30 -60 c47 -25 70 -73 70 -147 0 -33 -5 -67 -10
-75 -6 -10 -9 2 -9 41 1 61 -15 100 -55 138 -41 38 -129 41 -199 8 -29 -15
-72 -43 -95 -63 -61 -52 -63 -36 -2 19 102 92 217 122 300 79z"/>
<path d="M2031 1389 c-55 -28 -117 -66 -138 -86 -46 -41 -41 -40 62 22 44 27
112 63 150 81 44 20 62 33 48 33 -12 1 -67 -22 -122 -50z"/>
<path d="M2134 1356 c-80 -38 -189 -105 -181 -112 3 -3 27 9 54 25 28 17 89
49 137 71 47 23 86 43 86 45 0 11 -30 2 -96 -29z"/>
<path d="M1810 1256 c0 -1 5 -18 12 -37 11 -33 12 -33 18 -10 6 24 6 24 27
-12 23 -38 49 -47 71 -25 30 30 -1 74 -33 48 -13 -10 -20 -8 -40 14 -20 21
-55 36 -55 22z"/>
<path d="M2606 782 c-4 -6 -4 -51 -1 -99 7 -104 0 -123 -39 -98 -31 20 -72 14
-81 -14 -14 -45 37 -81 83 -59 43 21 65 71 64 146 0 64 1 66 14 37 7 -16 13
-47 14 -68 0 -23 4 -36 10 -32 6 3 10 18 10 33 0 36 -64 170 -74 154z m-56
-242 c0 -5 -6 -10 -14 -10 -8 0 -18 5 -21 10 -3 6 3 10 14 10 12 0 21 -4 21
-10z"/>
</g>
</svg>
